<svg width="34" height="27" viewBox="0 0 34 27" fill="none" xmlns="http://www.w3.org/2000/svg">
<path d="M33.7196 25.4437C33.7168 25.8311 33.5575 26.2019 33.276 26.4759C32.9945 26.75 32.6135 26.9053 32.2153 26.9084H4.8957C4.4966 26.908 4.11399 26.7535 3.83193 26.4789C3.54986 26.2043 3.39143 25.8319 3.39143 25.4437V23.9584H30.6868V6.7009L18.5555 17.3209L3.39143 4.0459V1.8334C3.39143 1.4422 3.55119 1.06703 3.83557 0.790416C4.11995 0.5138 4.50566 0.358398 4.90783 0.358398H32.2032C32.6053 0.358398 32.991 0.5138 33.2754 0.790416C33.5598 1.06703 33.7196 1.4422 33.7196 1.8334V25.4437ZM7.08236 3.3084L18.5555 13.3532L30.0286 3.3084H7.08236ZM0.358612 18.0584H12.4899V21.0084H0.358612V18.0584ZM0.358612 10.6834H7.94065V13.6334H0.358612V10.6834Z" fill="#2F8FF6"/>
</svg>
