<svg width="117" height="120" viewBox="0 0 117 120" fill="none" xmlns="http://www.w3.org/2000/svg">
<g clip-path="url(#clip0)">
<path d="M70.3105 109.298C69.3458 109.545 68.3623 109.764 67.3861 109.948C64.8341 110.435 63.1469 112.953 63.619 115.573C63.8521 116.862 64.5658 117.936 65.5347 118.636C66.5333 119.357 67.8043 119.683 69.0994 119.436C70.262 119.214 71.4336 118.954 72.5833 118.66C75.1034 118.017 76.6386 115.398 76.01 112.814C75.3828 110.228 72.832 108.655 70.3105 109.298Z" fill="#F6F8F9"/>
<path d="M105.089 44.638C105.418 45.6564 106.047 46.4877 106.841 47.0622C108.019 47.9132 109.561 48.1995 111.032 47.7006C113.497 46.8607 114.834 44.1331 114.018 41.6049C113.646 40.4524 113.234 39.2963 112.794 38.1706C111.83 35.6968 109.094 34.4924 106.681 35.4819C104.271 36.4709 103.096 39.2777 104.062 41.7522C104.431 42.6984 104.777 43.6696 105.089 44.638Z" fill="#F6F8F9"/>
<path d="M85.5924 102.411C84.7628 102.973 83.9065 103.517 83.044 104.026C80.7935 105.358 80.0227 108.308 81.3204 110.616C81.6727 111.243 82.1419 111.756 82.6824 112.148C84.1331 113.195 86.1034 113.352 87.7438 112.383C88.7693 111.776 89.7891 111.131 90.7771 110.461C92.9433 108.993 93.5396 106 92.1077 103.777C90.676 101.553 87.7594 100.942 85.5924 102.411Z" fill="#F6F8F9"/>
<path d="M116.942 58.1116C116.84 55.449 114.653 53.3766 112.057 53.4806C109.464 53.5855 107.442 55.829 107.544 58.4905C107.583 59.5082 107.593 60.541 107.57 61.5576C107.533 63.2273 108.329 64.7157 109.567 65.6103C110.304 66.1427 111.198 66.4649 112.168 66.4876C114.764 66.5467 116.915 64.4348 116.973 61.7709C116.999 60.5562 116.989 59.3255 116.942 58.1116Z" fill="#F6F8F9"/>
<path d="M104.321 89.7203C102.24 88.1185 99.2949 88.5534 97.736 90.6846C97.139 91.5007 96.5103 92.3068 95.8665 93.083C94.1841 95.1105 94.4218 98.156 96.3984 99.883C96.511 99.981 96.625 100.071 96.7431 100.156C98.7082 101.577 101.439 101.25 103.028 99.3376C103.797 98.4116 104.546 97.4486 105.26 96.4738C106.819 94.3426 106.397 91.3199 104.321 89.7203Z" fill="#F6F8F9"/>
<path d="M111.234 72.282C108.756 71.4849 106.117 72.9001 105.34 75.4422C105.043 76.4134 104.713 77.3892 104.358 78.345C103.577 80.4488 104.325 82.7637 106.04 84.0042C106.355 84.231 106.701 84.4231 107.078 84.5691C109.504 85.5189 112.222 84.2702 113.146 81.7801C113.569 80.6438 113.96 79.4828 114.315 78.3282C115.091 75.7855 113.712 73.0791 111.234 72.282Z" fill="#F6F8F9"/>
<path d="M49.7921 109.992C45.5874 109.218 41.554 107.899 37.7292 106.06C37.684 106.035 37.6435 106.008 37.596 105.986C36.6947 105.55 35.7949 105.084 34.9228 104.597C34.9198 104.594 34.9142 104.591 34.9094 104.589C33.3093 103.685 31.7476 102.685 30.2305 101.59C8.10762 85.6044 2.78839 54.1372 18.3734 31.4448C21.7623 26.5122 25.8633 22.397 30.4354 19.1355C30.4918 19.0952 30.5481 19.0553 30.6039 19.0148C46.7152 7.62765 68.5919 6.86024 85.6996 18.5615L82.0253 24.0072C81.0038 25.5229 81.6322 26.6275 83.4205 26.4624L99.3809 24.9967C101.171 24.8316 102.242 23.2429 101.761 21.4692L97.4747 5.62929C96.9949 3.85353 95.7664 3.64098 94.7439 5.15646L91.0611 10.615C78.5064 1.97021 63.4482 -1.32617 48.5022 1.33229C46.9969 1.59953 45.5127 1.92662 44.0488 2.30736C44.0375 2.30942 44.0285 2.31071 44.0194 2.31278C43.9628 2.32696 43.9055 2.34579 43.8504 2.36153C30.9623 5.75646 19.7175 13.4669 11.6937 24.4681C11.626 24.5504 11.5564 24.6309 11.4925 24.7204C11.2257 25.089 10.9609 25.4662 10.7016 25.8433C10.2776 26.4614 9.85965 27.0949 9.45981 27.7284C9.40976 27.8048 9.37154 27.8824 9.32778 27.9596C2.70641 38.4843 -0.487334 50.652 0.060381 63.0394C0.0616384 63.0802 0.0593751 63.1212 0.060381 63.163C0.113442 64.3731 0.206992 65.5999 0.333987 66.8076C0.340777 66.8855 0.357626 66.9593 0.370451 67.0372C0.501722 68.2516 0.666439 69.4689 0.8729 70.686C2.97122 83.1033 8.68174 94.2771 17.2387 102.971C17.2586 102.992 17.2792 103.014 17.2993 103.035C17.3064 103.043 17.3142 103.047 17.3209 103.055C19.6199 105.381 22.1206 107.532 24.8132 109.477C31.8595 114.57 39.7058 117.937 48.1323 119.488C50.6891 119.959 53.1314 118.213 53.5901 115.592C54.0485 112.969 52.3481 110.462 49.7921 109.992Z" fill="#F6F8F9"/>
<g filter="url(#filter0_d)">
<path d="M55.6075 21.4612C53.5044 21.4612 51.8009 23.2101 51.8009 25.3643V64.25L86.4719 82.6346C87.03 82.931 87.6275 83.0705 88.2154 83.0705C89.5925 83.0705 90.9226 82.3013 91.5988 80.9592C92.5632 79.0436 91.8334 76.6903 89.966 75.7011L59.4098 59.4969V25.3643C59.4096 23.2101 57.7081 21.4612 55.6075 21.4612Z" fill="#2F8FF6"/>
</g>
</g>
<defs>
<filter id="filter0_d" x="31.8009" y="1.46118" width="80.2234" height="101.609" filterUnits="userSpaceOnUse" color-interpolation-filters="sRGB">
<feFlood flood-opacity="0" result="BackgroundImageFix"/>
<feColorMatrix in="SourceAlpha" type="matrix" values="0 0 0 0 0 0 0 0 0 0 0 0 0 0 0 0 0 0 127 0"/>
<feOffset/>
<feGaussianBlur stdDeviation="10"/>
<feColorMatrix type="matrix" values="0 0 0 0 0.184314 0 0 0 0 0.560784 0 0 0 0 0.964706 0 0 0 1 0"/>
<feBlend mode="normal" in2="BackgroundImageFix" result="effect1_dropShadow"/>
<feBlend mode="normal" in="SourceGraphic" in2="effect1_dropShadow" result="shape"/>
</filter>
<clipPath id="clip0">
<rect width="116.987" height="120" fill="white"/>
</clipPath>
</defs>
</svg>
