<svg width="135" height="135" viewBox="0 0 135 135" fill="none" xmlns="http://www.w3.org/2000/svg">
<g clip-path="url(#clip0)">
<path d="M134.08 48.6444C133.722 47.4589 133.327 46.2847 132.904 45.1219C132.893 45.0889 132.881 45.0549 132.869 45.023C128.358 32.7025 120.232 21.7076 109.698 13.7666C97.7502 4.76051 83.5047 0 68.5022 0C51.5036 0 35.1744 6.32915 22.5233 17.8226C21.7148 18.5559 21.6541 19.8073 22.3895 20.6158C23.1228 21.4244 24.3732 21.4841 25.1827 20.7497C37.1046 9.91962 52.4882 3.95508 68.5022 3.95508C82.6385 3.95508 96.061 8.44059 107.318 16.9244C117.211 24.3824 124.851 34.6976 129.111 46.2569C129.508 48.8195 129.179 50.7187 128.099 52.0546C126.706 53.7808 123.936 54.7541 119.868 54.9488C119.84 54.9509 119.811 54.9529 119.783 54.955C119.178 54.9859 118.573 55.0281 117.969 55.0755C117.806 53.7973 117.526 52.5366 117.127 51.3099C115.011 44.8005 109.829 39.7588 103.263 37.8225L92.1585 34.5493L85.613 24.9984C81.7434 19.3531 75.3463 15.982 68.5022 15.982C61.657 15.982 55.2609 19.3531 51.3903 24.9994L44.8459 34.5493L33.7397 37.8235C27.1747 39.7588 21.9929 44.8005 19.8774 51.3099C17.7628 57.8204 18.9916 64.9457 23.166 70.3695L30.2255 79.5455L29.9072 91.1192C29.7517 96.7676 31.8312 102.104 35.7636 106.144C39.6558 110.145 45.0745 112.439 50.6312 112.439H50.6332C52.3955 112.439 54.1423 112.214 55.8469 111.77C55.3948 114.409 55.0951 117.085 54.955 119.786C54.9519 119.813 54.9509 119.84 54.9488 119.868C54.7552 123.936 53.7808 126.706 52.0556 128.099C50.7187 129.179 48.8195 129.508 46.2569 129.111C34.6976 124.851 24.3835 117.211 16.9255 107.318C8.44059 96.061 3.95508 82.6385 3.95508 68.5022C3.95508 53.4852 9.28001 38.835 18.9483 27.2499C19.6487 26.4115 19.5364 25.1652 18.698 24.4648C17.8597 23.7655 16.6124 23.8778 15.913 24.7161C5.65144 37.0109 0 52.5603 0 68.5022C0 83.5047 4.76051 97.7502 13.7666 109.698C21.7076 120.232 32.7036 128.358 45.023 132.869C45.0549 132.881 45.0879 132.893 45.1209 132.904C46.2847 133.327 47.4589 133.722 48.6444 134.08C50.6889 134.699 52.7776 135 54.8489 135C60.455 135 65.9314 132.794 70.0296 128.695L80.3365 118.389C81.1079 117.616 81.1079 116.364 80.3365 115.591C79.564 114.82 78.3116 114.82 77.5391 115.591L67.2332 125.898C63.8508 129.281 59.321 131.081 54.6954 131.042C57.2261 128.897 58.6413 125.232 58.8967 120.131C58.8977 120.109 58.8998 120.085 58.9008 120.061C59.7134 104.08 66.3979 89.0438 77.7204 77.7204C89.0428 66.3979 104.08 59.7134 120.061 58.9008C120.087 58.8998 120.111 58.8977 120.136 58.8956C125.234 58.6402 128.898 57.225 131.042 54.6954C131.081 59.321 129.28 63.8508 125.897 67.2332L84.0897 109.042C83.3172 109.814 83.3172 111.066 84.0897 111.838C84.4759 112.224 84.9827 112.417 85.4884 112.417C85.9941 112.417 86.5009 112.224 86.8871 111.838L128.695 70.0296C134.308 64.4163 136.372 56.2218 134.08 48.6444ZM102.355 58.1551C92.0946 61.4572 82.6859 67.1611 74.923 74.923C69.6063 80.2407 65.2547 86.3319 61.9794 92.9382L52.31 96.3762C50.7404 96.9344 49.0667 96.6934 47.7195 95.7139C46.3712 94.7344 45.6245 93.2173 45.6698 91.5518L46.055 77.5484C46.1117 75.5018 45.4546 73.481 44.2062 71.8568L35.6627 60.7547C34.6471 59.4333 34.3597 57.7678 34.8747 56.1827C35.3897 54.5986 36.601 53.4193 38.1995 52.9486L51.6364 48.9874C53.6006 48.4085 55.3196 47.1592 56.4783 45.47L64.3977 33.9138C65.3391 32.5398 66.8357 31.7508 68.5011 31.7508C70.1676 31.7508 71.6631 32.5398 72.6045 33.9138L80.525 45.47C81.6827 47.1592 83.4027 48.4085 85.3658 48.9874L98.8038 52.9486C100.105 53.3318 101.167 54.199 101.793 55.3886C102.242 56.2424 102.433 57.2116 102.355 58.1551ZM106.303 57.016C106.207 55.8202 105.869 54.6429 105.294 53.548C104.166 51.4037 102.258 49.8433 99.9224 49.1542L86.4844 45.1929C85.3906 44.8716 84.4327 44.1753 83.7879 43.2339L75.8685 31.6777C74.202 29.247 71.4489 27.7958 68.5022 27.7958C65.5554 27.7958 62.8013 29.247 61.1358 31.6777L53.2164 43.2339C52.5706 44.1753 51.6127 44.8716 50.5189 45.1929L37.0809 49.1542C34.2547 49.9874 32.0238 52.1586 31.1133 54.9612C30.2028 57.7637 30.7312 60.831 32.5285 63.1659L41.071 74.269C41.7673 75.1733 42.1329 76.299 42.102 77.4392L41.7168 91.4437C41.6354 94.3884 43.0104 97.1816 45.3938 98.913C46.9418 100.038 48.7824 100.62 50.6435 100.62C51.6488 100.62 52.6613 100.449 53.6356 100.103L59.7505 97.9284C58.53 100.981 57.5258 104.124 56.7554 107.334L56.2682 107.508C54.4462 108.156 52.55 108.484 50.6332 108.484C50.6322 108.484 50.6322 108.484 50.6312 108.484C46.1364 108.484 41.7498 106.626 38.5981 103.386C35.4175 100.117 33.7346 95.7994 33.8612 91.2274L34.198 78.9512C34.2104 78.497 34.0662 78.052 33.7891 77.6915L26.3002 67.9583C22.9219 63.5686 21.927 57.8018 23.6388 52.5325C25.3506 47.2642 29.5446 43.1835 34.8582 41.6169L46.638 38.1449C47.0747 38.0161 47.4537 37.7411 47.7102 37.3652L54.6532 27.2355C57.7853 22.6655 62.962 19.9381 68.5022 19.9381C74.0413 19.9381 79.218 22.6655 82.3501 27.2355L89.2931 37.3652C89.5506 37.7411 89.9286 38.0161 90.3653 38.1449L102.145 41.6169C107.459 43.1835 111.654 47.2642 113.366 52.5325C113.68 53.4996 113.904 54.4925 114.038 55.5009C111.423 55.8583 108.841 56.364 106.303 57.016Z" fill="#F6F8F9" stroke="#F6F8F9" stroke-width="2"/>
</g>
<defs>
<clipPath id="clip0">
<rect width="135" height="135" fill="white"/>
</clipPath>
</defs>
</svg>
