<svg width="133" height="135" viewBox="0 0 133 135" fill="none" xmlns="http://www.w3.org/2000/svg">
<g clip-path="url(#clip0)">
<path d="M118.37 56.4889V53.438C118.37 48.7855 114.68 45.0005 110.144 45.0005H82.7245V30.937C82.7245 29.3837 81.4971 28.1244 79.9825 28.1244H71.7567V19.6882C71.7567 18.135 70.529 16.8757 69.0147 16.8757H31.7665L27.0846 12.0734C26.0142 10.9752 24.2781 10.9752 23.2072 12.0734L7.55846 28.1244H3.21019C1.6959 28.1247 0.468227 29.3837 0.468227 30.937V109.687C0.468227 111.24 1.6959 112.5 3.21019 112.5H14.4533C14.8659 114.577 15.7268 116.489 16.9267 118.125H11.4356C9.92127 118.125 8.69386 119.384 8.69386 120.937C8.69386 122.49 9.92127 123.75 11.4358 123.75H27.8863C27.8932 123.75 27.8997 123.749 27.9066 123.749C34.518 123.739 40.0474 118.905 41.3198 112.5H79.9825H91.2277C91.6403 114.577 92.5014 116.489 93.7014 118.125H88.21C86.6959 118.125 85.468 119.384 85.468 120.938C85.468 122.491 86.6957 123.75 88.21 123.75H104.66C104.667 123.75 104.674 123.749 104.681 123.749C111.292 123.739 116.822 118.905 118.094 112.5H129.336C130.851 112.5 132.078 111.241 132.078 109.688V84.3751V73.1245C132.078 64.7785 126.139 57.8326 118.37 56.4889ZM66.273 22.5008V28.1247H42.7333L37.2504 22.5008H66.273V22.5008ZM25.1459 18.0395L28.6901 21.6747C28.6914 21.6761 28.6929 21.6776 28.6942 21.679L34.9781 28.1247H15.3139L25.1459 18.0395ZM27.8868 118.124C23.3509 118.124 19.6609 114.34 19.6609 109.687C19.6609 105.035 23.3509 101.249 27.8868 101.249C32.4222 101.249 36.1119 105.035 36.1119 109.687C36.1117 114.34 32.422 118.124 27.8868 118.124ZM77.2406 47.8131V95.6252H58.5933C57.0791 95.6252 55.8514 96.8845 55.8514 98.4378C55.8514 99.9911 57.0788 101.25 58.5933 101.25H77.2406V106.875H41.3198C40.0461 100.464 34.5072 95.6249 27.8868 95.6249C21.2665 95.6249 15.7268 100.464 14.4531 106.875H5.95189V61.8752H16.919C18.433 61.8752 19.6609 60.6162 19.6609 59.0626C19.6609 57.5093 18.4333 56.25 16.919 56.25H5.95189V50.6254H38.8536C40.3679 50.6254 41.5956 49.3664 41.5956 47.8128C41.5956 46.2595 40.3682 45.0002 38.8536 45.0002H5.95189V33.7491H8.69206C8.6936 33.7491 8.69514 33.7491 8.69643 33.7491H77.2406V47.8131ZM91.2277 106.875H82.7245V101.25H93.7008C92.5007 102.886 91.6401 104.798 91.2277 106.875ZM112.886 109.697C112.881 114.345 109.193 118.124 104.661 118.124C100.125 118.124 96.4351 114.34 96.4351 109.687C96.4351 105.042 100.114 101.262 104.64 101.25H104.66C104.663 101.25 104.665 101.25 104.668 101.25C109.197 101.253 112.881 105.032 112.886 109.678C112.886 109.682 112.886 109.684 112.886 109.687C112.886 109.691 112.886 109.693 112.886 109.697ZM126.595 106.875H118.094C116.82 100.464 111.281 95.6247 104.661 95.6247C104.654 95.6247 104.647 95.6252 104.64 95.6252H82.7242V50.6257H110.144C111.656 50.6257 112.886 51.8873 112.886 53.4382V56.2506H93.6934C92.1793 56.2506 90.9514 57.5096 90.9514 59.0632V84.3751C90.9514 85.9284 92.1791 87.1877 93.6934 87.1877H126.595V106.875V106.875ZM101.919 61.8752V81.5623H96.4353V61.8752H101.919ZM126.595 81.5623H107.403V61.8752H115.628C121.675 61.8752 126.595 66.9214 126.595 73.1242V81.5623Z" fill="white"/>
<g filter="url(#filter0_d)">
<path d="M47.8676 101.25H49.579C51.0931 101.25 52.321 99.9909 52.321 98.4376C52.321 96.8843 51.0933 95.625 49.579 95.625H47.8676C46.3533 95.625 45.1256 96.8843 45.1256 98.4376C45.1256 99.9909 46.3536 101.25 47.8676 101.25Z" fill="#2F8FF6"/>
</g>
<g filter="url(#filter1_d)">
<path d="M47.8676 50.6257H49.579C51.0931 50.6257 52.321 49.3666 52.321 47.8131C52.321 46.2598 51.0933 45.0005 49.579 45.0005H47.8676C46.3533 45.0005 45.1256 46.2595 45.1256 47.8131C45.1259 49.3664 46.3536 50.6257 47.8676 50.6257Z" fill="#2F8FF6"/>
</g>
</g>
<defs>
<filter id="filter0_d" x="30.1256" y="80.625" width="37.1954" height="35.6252" filterUnits="userSpaceOnUse" color-interpolation-filters="sRGB">
<feFlood flood-opacity="0" result="BackgroundImageFix"/>
<feColorMatrix in="SourceAlpha" type="matrix" values="0 0 0 0 0 0 0 0 0 0 0 0 0 0 0 0 0 0 127 0"/>
<feOffset/>
<feGaussianBlur stdDeviation="7.5"/>
<feColorMatrix type="matrix" values="0 0 0 0 0.184314 0 0 0 0 0.560784 0 0 0 0 0.964706 0 0 0 1 0"/>
<feBlend mode="normal" in2="BackgroundImageFix" result="effect1_dropShadow"/>
<feBlend mode="normal" in="SourceGraphic" in2="effect1_dropShadow" result="shape"/>
</filter>
<filter id="filter1_d" x="30.1256" y="30.0005" width="37.1954" height="35.6252" filterUnits="userSpaceOnUse" color-interpolation-filters="sRGB">
<feFlood flood-opacity="0" result="BackgroundImageFix"/>
<feColorMatrix in="SourceAlpha" type="matrix" values="0 0 0 0 0 0 0 0 0 0 0 0 0 0 0 0 0 0 127 0"/>
<feOffset/>
<feGaussianBlur stdDeviation="7.5"/>
<feColorMatrix type="matrix" values="0 0 0 0 0.184314 0 0 0 0 0.560784 0 0 0 0 0.964706 0 0 0 1 0"/>
<feBlend mode="normal" in2="BackgroundImageFix" result="effect1_dropShadow"/>
<feBlend mode="normal" in="SourceGraphic" in2="effect1_dropShadow" result="shape"/>
</filter>
<clipPath id="clip0">
<rect width="131.61" height="135" fill="white" transform="translate(0.468227)"/>
</clipPath>
</defs>
</svg>
