<svg width="132" height="135" viewBox="0 0 132 135" fill="none" xmlns="http://www.w3.org/2000/svg">
<g clip-path="url(#clip0)">
<path d="M131.427 73.7359C130.246 61.544 124.936 50.0501 116.475 41.3713C109.245 33.9548 100.395 29.1889 91.0826 27.0697V20.3703C94.8859 19.3997 97.713 15.8683 97.713 11.6708C97.713 6.7274 93.7924 2.70581 88.9732 2.70581H70.4652C65.6459 2.70581 61.7253 6.7274 61.7253 11.6708C61.7253 15.868 64.5524 19.3994 68.3556 20.3703V27.0885C59.072 29.2166 50.2514 33.9759 43.0416 41.3715C41.4638 42.99 40.0088 44.6878 38.677 46.4523C38.6125 46.4473 38.548 46.4423 38.4822 46.4423H20.1642C18.7447 46.4423 17.5936 47.6228 17.5936 49.079C17.5936 50.5353 18.7447 51.7158 20.1642 51.7158H35.1793C33.2946 54.9524 31.7749 58.3515 30.6181 61.8504H2.64153C1.22208 61.8504 0.0709839 63.0309 0.0709839 64.4872C0.0709839 65.9435 1.22208 67.124 2.64153 67.124H29.1655C28.4247 70.4597 27.9995 73.8545 27.8897 77.2589H16.5225C15.103 77.2589 13.9519 78.4393 13.9519 79.8956C13.9519 81.3519 15.103 82.5324 16.5225 82.5324H27.9717C28.1887 85.9454 28.7236 89.3405 29.5768 92.6673H12.9237C11.5043 92.6673 10.3532 93.8478 10.3532 95.3041C10.3532 96.7603 11.5043 97.9408 12.9237 97.9408H31.2173C33.739 104.783 37.6799 111.197 43.0416 116.697C51.5105 125.384 62.7273 130.832 74.6254 132.038C76.3235 132.209 78.0229 132.295 79.72 132.295C89.7508 132.295 99.6541 129.317 108.057 123.704C109.247 122.909 109.583 121.276 108.809 120.055C108.034 118.835 106.441 118.49 105.252 119.285C86.8576 131.571 62.2233 128.915 46.6768 112.968C28.4357 94.2567 28.4357 63.8119 46.6768 45.1007C64.9177 26.39 94.598 26.39 112.839 45.1007C128.365 61.0267 130.969 86.274 119.031 105.133C118.258 106.354 118.596 107.987 119.787 108.78C120.978 109.573 122.569 109.226 123.342 108.005C129.721 97.9282 132.592 85.7582 131.427 73.7359ZM66.8664 11.6711C66.8664 9.63548 68.4807 7.97959 70.4652 7.97959H88.9732C90.9576 7.97959 92.5719 9.63548 92.5719 11.6711C92.5719 13.7066 90.9576 15.3625 88.9732 15.3625H88.512H70.9261H70.4652C68.4807 15.3625 66.8664 13.7064 66.8664 11.6711ZM73.4967 26.1819V20.636H85.9415V26.1724C81.809 25.6683 77.6283 25.6715 73.4967 26.1819Z" fill="white"/>
<path d="M114.658 112.194C113.98 112.194 113.319 112.476 112.841 112.967C112.36 113.457 112.088 114.137 112.088 114.831C112.088 115.524 112.36 116.205 112.841 116.695C113.319 117.188 113.98 117.468 114.658 117.468C115.334 117.468 115.995 117.188 116.476 116.695C116.954 116.205 117.229 115.524 117.229 114.831C117.229 114.137 116.954 113.457 116.476 112.967C115.995 112.476 115.334 112.194 114.658 112.194Z" fill="white"/>
<path d="M79.7583 38.1299C57.7703 38.1299 39.8816 56.4791 39.8816 79.0337C39.8816 101.588 57.7703 119.937 79.7583 119.937C101.746 119.937 119.635 101.588 119.635 79.0337C119.635 56.4791 101.746 38.1299 79.7583 38.1299ZM79.7583 114.664C60.6048 114.664 45.0227 98.6802 45.0227 79.0337C45.0227 59.3872 60.6048 43.4034 79.7583 43.4034C98.9117 43.4034 114.494 59.3872 114.494 79.0337C114.494 98.6802 98.9117 114.664 79.7583 114.664Z" fill="white"/>
<g filter="url(#filter0_d)">
<path d="M96.0185 58.6258L83.2866 71.6854C82.2219 71.1454 81.0242 70.8403 79.7582 70.8403C78.492 70.8403 77.2946 71.1454 76.2299 71.6854L70.5318 65.8405C69.5277 64.8108 67.9006 64.8108 66.8963 65.8405C65.8925 66.8701 65.8925 68.5397 66.8963 69.5694L72.5944 75.4143C72.0677 76.5064 71.7705 77.7349 71.7705 79.0335C71.7705 83.5513 75.3536 87.227 79.7582 87.227C84.1629 87.227 87.746 83.5513 87.746 79.0335C87.746 77.7349 87.4486 76.5064 86.9221 75.4143L99.2803 62.7378L99.6538 62.3547C100.658 61.325 100.658 59.6554 99.6538 58.6258C98.65 57.5961 97.0228 57.5961 96.0185 58.6258ZM79.7582 81.9537C78.1887 81.9537 76.9116 80.6438 76.9116 79.0338C76.9116 77.4238 78.1887 76.1138 79.7582 76.1138C81.3278 76.1138 82.6049 77.4238 82.6049 79.0338C82.6049 80.6438 81.3278 81.9537 79.7582 81.9537Z" fill="#2F8FF6"/>
</g>
<path d="M107.242 76.4292H104.861C103.441 76.4292 102.29 77.6097 102.29 79.0659C102.29 80.5222 103.441 81.7026 104.861 81.7026H107.242C108.662 81.7026 109.813 80.5222 109.813 79.0659C109.813 77.6097 108.662 76.4292 107.242 76.4292Z" fill="white"/>
<path d="M54.6555 76.3647H52.2742C50.8547 76.3647 49.7036 77.5452 49.7036 79.0015C49.7036 80.4577 50.8547 81.6382 52.2742 81.6382H54.6555C56.0749 81.6382 57.226 80.4577 57.226 79.0015C57.226 77.5452 56.0749 76.3647 54.6555 76.3647Z" fill="white"/>
<path d="M79.7896 55.9212C81.209 55.9212 82.3601 54.7407 82.3601 53.2844V50.8418C82.3601 49.3855 81.209 48.2051 79.7896 48.2051C78.3702 48.2051 77.2191 49.3855 77.2191 50.8418V53.2844C77.2191 54.7407 78.3702 55.9212 79.7896 55.9212Z" fill="white"/>
<path d="M79.7268 102.146C78.3074 102.146 77.1563 103.327 77.1563 104.783V107.226C77.1563 108.682 78.3074 109.862 79.7268 109.862C81.1463 109.862 82.2974 108.682 82.2974 107.226V104.783C82.2974 103.327 81.1463 102.146 79.7268 102.146Z" fill="white"/>
<path d="M2.64149 92.6663C1.96545 92.6663 1.30226 92.9484 0.824143 93.4388C0.346028 93.9292 0.0709839 94.6095 0.0709839 95.303C0.0709839 95.9991 0.345771 96.6767 0.824143 97.1671C1.30251 97.6576 1.96545 97.9397 2.64149 97.9397C3.31754 97.9397 3.98073 97.6576 4.45859 97.1671C4.9367 96.6767 5.212 95.9964 5.212 95.303C5.212 94.6095 4.93696 93.9292 4.45859 93.4388C3.98073 92.9484 3.31754 92.6663 2.64149 92.6663Z" fill="white"/>
</g>
<defs>
<filter id="filter0_d" x="51.1434" y="42.8535" width="64.2632" height="59.3734" filterUnits="userSpaceOnUse" color-interpolation-filters="sRGB">
<feFlood flood-opacity="0" result="BackgroundImageFix"/>
<feColorMatrix in="SourceAlpha" type="matrix" values="0 0 0 0 0 0 0 0 0 0 0 0 0 0 0 0 0 0 127 0"/>
<feOffset/>
<feGaussianBlur stdDeviation="7.5"/>
<feColorMatrix type="matrix" values="0 0 0 0 0.184314 0 0 0 0 0.560784 0 0 0 0 0.964706 0 0 0 1 0"/>
<feBlend mode="normal" in2="BackgroundImageFix" result="effect1_dropShadow"/>
<feBlend mode="normal" in="SourceGraphic" in2="effect1_dropShadow" result="shape"/>
</filter>
<clipPath id="clip0">
<rect width="131.61" height="135" fill="white" transform="translate(0.0709839)"/>
</clipPath>
</defs>
</svg>
