<svg width="33" height="32" viewBox="0 0 33 32" fill="none" xmlns="http://www.w3.org/2000/svg">
<path d="M12.1989 13.2487C13.8589 16.0855 16.2741 18.4348 19.1905 20.0495L20.7544 17.9191C21.0059 17.5765 21.3778 17.3355 21.7997 17.2417C22.2215 17.1478 22.6641 17.2076 23.0437 17.4097C25.5459 18.7398 28.3091 19.5397 31.1517 19.7569C31.5954 19.7911 32.0095 19.9867 32.3115 20.3047C32.6135 20.6227 32.7812 21.0397 32.7811 21.4726V29.151C32.7812 29.577 32.6188 29.988 32.3253 30.3043C32.0318 30.6206 31.6281 30.8197 31.1924 30.8632C30.2548 30.9578 29.31 31.0043 28.3582 31.0043C13.2144 31.0043 0.936493 19.0617 0.936493 4.33138C0.936493 3.40557 0.98426 2.48665 1.08156 1.57461C1.12624 1.15076 1.33098 0.758106 1.65616 0.472642C1.98134 0.187179 2.40383 0.0292051 2.84186 0.0292969H10.7358C11.1808 0.0292426 11.6096 0.192349 11.9365 0.486094C12.2634 0.779839 12.4645 1.18264 12.4996 1.61419C12.7229 4.37921 13.5453 7.06696 14.9127 9.50077C15.1205 9.87 15.182 10.3005 15.0855 10.7109C14.989 11.1212 14.7412 11.4829 14.3891 11.7275L12.1989 13.2487ZM7.73708 12.1182L11.0985 9.78298C10.1445 7.7801 9.49093 5.65443 9.15771 3.47097H4.49247C4.48186 3.75662 4.47655 4.044 4.47655 4.33138C4.47478 17.1619 15.1675 27.5626 28.3582 27.5626C28.6537 27.5626 28.9491 27.5575 29.2428 27.5454V23.0076C26.998 22.6835 24.8127 22.0477 22.7536 21.1198L20.3529 24.3894C19.3863 24.0241 18.4475 23.5928 17.5435 23.0988L17.4408 23.042C13.9708 21.1211 11.0972 18.3259 9.12232 14.9506L9.06394 14.8508C8.55604 13.9715 8.11264 13.0583 7.73708 12.1182Z" fill="#2F6EF6"/>
</svg>
