<svg width="31" height="31" viewBox="0 0 31 31" fill="none" xmlns="http://www.w3.org/2000/svg">
<path d="M15.3552 30.3167C6.98008 30.3167 0.191132 23.7131 0.191132 15.5667C0.191132 7.42023 6.98008 0.81665 15.3552 0.81665C23.7303 0.81665 30.5193 7.42023 30.5193 15.5667C30.5193 23.7131 23.7303 30.3167 15.3552 30.3167ZM15.3552 27.3667C18.5726 27.3667 21.6582 26.1235 23.9333 23.9105C26.2083 21.6976 27.4864 18.6962 27.4864 15.5667C27.4864 12.4371 26.2083 9.43572 23.9333 7.22279C21.6582 5.00986 18.5726 3.76665 15.3552 3.76665C12.1378 3.76665 9.05216 5.00986 6.77711 7.22279C4.50205 9.43572 3.22394 12.4371 3.22394 15.5667C3.22394 18.6962 4.50205 21.6976 6.77711 23.9105C9.05216 26.1235 12.1378 27.3667 15.3552 27.3667ZM16.8716 15.5667H22.9372V18.5167H13.8388V8.19165H16.8716V15.5667Z" fill="url(#paint0_linear)"/>
<defs>
<linearGradient id="paint0_linear" x1="15.3552" y1="0.81665" x2="15.3552" y2="30.3167" gradientUnits="userSpaceOnUse">
<stop stop-color="#2F6EF6"/>
<stop offset="1" stop-color="#2F8FF6"/>
</linearGradient>
</defs>
</svg>
