<svg width="132" height="135" viewBox="0 0 132 135" fill="none" xmlns="http://www.w3.org/2000/svg">
<g clip-path="url(#clip0)">
<g filter="url(#filter0_d)">
<path d="M124.666 122.143C121.211 122.143 118.399 125.028 118.399 128.571C118.399 132.115 121.211 135 124.666 135C128.121 135 130.933 132.115 130.933 128.571C130.933 125.028 128.121 122.143 124.666 122.143ZM124.666 130.714C123.516 130.714 122.577 129.754 122.577 128.571C122.577 127.389 123.516 126.429 124.666 126.429C125.817 126.429 126.755 127.389 126.755 128.571C126.755 129.754 125.817 130.714 124.666 130.714Z" fill="#2F8FF6"/>
</g>
<g filter="url(#filter1_d)">
<path d="M13.9466 6.42857C13.9466 2.8847 11.1343 0 7.67944 0C4.22455 0 1.41229 2.8847 1.41229 6.42857C1.41229 9.97245 4.22455 12.8571 7.67944 12.8571C11.1343 12.8571 13.9466 9.97245 13.9466 6.42857ZM5.59039 6.42857C5.59039 5.24833 6.52883 4.28571 7.67944 4.28571C8.83005 4.28571 9.76849 5.24833 9.76849 6.42857C9.76849 7.60882 8.83005 8.57143 7.67944 8.57143C6.52883 8.57143 5.59039 7.60882 5.59039 6.42857Z" fill="#2F8FF6"/>
</g>
<path d="M113.639 84.919L109.512 76.4554C110.388 74.6337 111.137 72.7933 111.753 70.9612L120.488 67.9739V43.4545L111.753 40.4673C111.139 38.6352 110.388 36.7947 109.512 34.9731L113.643 26.5011L96.7415 9.16465L88.4822 13.4012C86.7063 12.5035 84.9121 11.7323 83.126 11.1024L80.2137 2.14282H56.31L53.3978 11.1024C51.6117 11.7323 49.8175 12.5035 48.0416 13.4012L39.7823 9.16465L22.8812 26.5011L27.0113 34.9731C26.1362 36.7947 25.3844 38.6352 24.7703 40.4673L16.0357 43.4545V67.9718L24.7703 70.958C25.3803 72.7776 26.1219 74.6013 26.9889 76.4083L24.3021 81.4285H11.8576V124.286H26.4809V117.857H42.3283L48.5955 124.286H59.9057V126.429C59.9057 131.156 63.6533 135 68.2619 135C72.8704 135 76.6181 131.156 76.6181 126.429V124.286H91.2435C94.6983 124.286 97.5106 121.401 97.5106 117.857C97.5106 116.205 96.8823 114.712 95.8816 113.571C96.8843 112.431 97.5106 110.938 97.5106 109.286C97.5106 107.634 96.8823 106.14 95.8816 105C96.6793 104.092 97.224 102.958 97.4147 101.694L113.639 84.919ZM31.2047 75.4582C30.0552 73.194 29.1177 70.8921 28.417 68.6206L28.0957 67.5795L20.2138 64.8831V46.5433L28.0957 43.849L28.4149 42.8058C29.1126 40.5364 30.0511 38.2345 31.2017 35.9702L31.6933 34.9993L27.9641 27.3475L40.6055 14.3805L48.065 18.2059L49.0116 17.7026C51.2211 16.5213 53.4631 15.5597 55.6756 14.843L56.6926 14.5155L59.3233 6.42854H77.2026L79.8292 14.5134L80.8462 14.8409C83.0586 15.5566 85.3027 16.5192 87.5101 17.6995L88.4567 18.2038L95.9163 14.3785L108.558 27.3455L104.828 34.9972L105.319 35.9682C106.471 38.2345 107.408 40.5343 108.107 42.8037L108.426 43.8469L116.31 46.5454V64.8852L108.428 67.5795L108.107 68.6206C107.406 70.8921 106.469 73.194 105.319 75.4582L104.828 76.4292L108.562 84.0862L96.2172 96.846C96.1111 96.7027 95.9979 96.5614 95.8816 96.4285C96.8843 95.288 97.5106 93.7949 97.5106 92.1428C97.5106 88.7998 95.0013 86.0784 91.8198 85.7739C100.682 78.4884 105.865 67.5554 105.865 55.7142C105.865 34.4468 88.9953 17.1428 68.2619 17.1428C47.5285 17.1428 30.659 34.4468 30.659 55.7142C30.659 67.4121 35.8439 78.4162 44.6448 85.7142H26.7757L31.7199 76.4742L31.2047 75.4582ZM93.3325 109.286C93.3325 110.468 92.3941 111.429 91.2435 111.429H74.529C73.3784 111.429 72.44 110.468 72.44 109.286C72.44 108.103 73.3784 107.143 74.529 107.143H91.2435C92.3941 107.143 93.3325 108.103 93.3325 109.286ZM63.2188 55.7142H73.305L76.6181 52.3158V42.8571C78.9224 42.8571 80.7962 44.7792 80.7962 47.1428V56.9698L73.664 64.2857H62.8597L55.7276 56.9698V47.1428C55.7276 44.7792 57.6014 42.8571 59.9057 42.8571V52.3158L63.2188 55.7142ZM64.0838 68.5714H72.44V77.1428H64.0838V68.5714ZM76.6181 67.3158L84.9743 58.7444V47.1428C84.9743 42.4156 81.2266 38.5714 76.6181 38.5714H72.44V50.5413L71.575 51.4285H64.9488L64.0838 50.5413V38.5714H59.9057C55.2971 38.5714 51.5495 42.4156 51.5495 47.1428V58.7444L59.9057 67.3158V77.1428H54.8626L54.731 77.2778C47.5989 72.5568 43.1933 64.4635 43.1933 55.7142C43.1933 41.5346 54.4383 30 68.2619 30C82.0855 30 93.3305 41.5346 93.3305 55.7142C93.3305 64.3997 89.1003 72.3538 82.0202 77.1428H76.6181V67.3158ZM97.5086 55.7142C97.5086 39.1709 84.3898 25.7142 68.2619 25.7142C52.134 25.7142 39.0152 39.1709 39.0152 55.7142C39.0152 65.6124 43.8155 74.8284 51.6893 80.3979L48.6811 83.4835C40.0057 77.0382 34.8371 66.7225 34.8371 55.7142C34.8371 36.8104 49.8328 21.4285 68.2619 21.4285C86.691 21.4285 101.687 36.8104 101.687 55.7142C101.687 66.304 97.02 76.0756 89.0524 82.5533C88.8137 81.0341 88.0579 79.7052 86.9715 78.7395C93.6293 73.0695 97.5086 64.7209 97.5086 55.7142ZM91.2435 90C92.3941 90 93.3325 90.9605 93.3325 92.1428C93.3325 93.3251 92.3941 94.2857 91.2435 94.2857H74.529C73.3784 94.2857 72.44 93.3251 72.44 92.1428C72.44 90.9605 73.3784 90 74.529 90H91.2435ZM74.529 102.857C73.3784 102.857 72.44 101.897 72.44 100.714C72.44 99.5319 73.3784 98.5714 74.529 98.5714H91.2435C92.3941 98.5714 93.3325 99.5319 93.3325 100.714C93.3325 101.897 92.3941 102.857 91.2435 102.857H74.529ZM22.3028 120H16.0357V85.7142H22.3028V120ZM50.3255 120L44.0583 113.571H26.4809V90H48.2364L56.5926 81.4285H82.8852C84.0358 81.4285 84.9743 82.389 84.9743 83.5714C84.9743 84.7537 84.0358 85.7142 82.8852 85.7142H61.1297L52.1615 94.9135L55.1156 97.9436L59.9057 93.0301V120H50.3255ZM68.2619 130.714C65.9576 130.714 64.0838 128.792 64.0838 126.429V90H68.6464C68.4118 90.6727 68.2619 91.3884 68.2619 92.1428C68.2619 93.7949 68.8902 95.288 69.8909 96.4285C68.8882 97.569 68.2619 99.0621 68.2619 100.714C68.2619 102.366 68.8902 103.859 69.8909 105C68.8882 106.14 68.2619 107.634 68.2619 109.286C68.2619 110.938 68.8902 112.431 69.8909 113.571C68.8882 114.712 68.2619 116.205 68.2619 117.857C68.2619 120.647 70.0143 123.004 72.44 123.891V126.429C72.44 128.792 70.5662 130.714 68.2619 130.714ZM91.2435 120H74.529C73.3784 120 72.44 119.039 72.44 117.857C72.44 116.675 73.3784 115.714 74.529 115.714H91.2435C92.3941 115.714 93.3325 116.675 93.3325 117.857C93.3325 119.039 92.3941 120 91.2435 120Z" fill="#F6F8F9"/>
<path d="M5.59044 19.2856H9.76854V23.5714H5.59044V19.2856Z" fill="white"/>
<path d="M5.59044 30H9.76854V34.2857H5.59044V30Z" fill="white"/>
<path d="M5.59044 40.7144H9.76854V45.0001H5.59044V40.7144Z" fill="white"/>
<path d="M122.577 90H126.755V94.2857H122.577V90Z" fill="white"/>
<path d="M122.577 100.714H126.755V105H122.577V100.714Z" fill="white"/>
<path d="M122.577 111.429H126.755V115.714H122.577V111.429Z" fill="white"/>
</g>
<defs>
<filter id="filter0_d" x="103.399" y="107.143" width="42.5343" height="42.8571" filterUnits="userSpaceOnUse" color-interpolation-filters="sRGB">
<feFlood flood-opacity="0" result="BackgroundImageFix"/>
<feColorMatrix in="SourceAlpha" type="matrix" values="0 0 0 0 0 0 0 0 0 0 0 0 0 0 0 0 0 0 127 0"/>
<feOffset/>
<feGaussianBlur stdDeviation="7.5"/>
<feColorMatrix type="matrix" values="0 0 0 0 0.184314 0 0 0 0 0.560784 0 0 0 0 0.964706 0 0 0 1 0"/>
<feBlend mode="normal" in2="BackgroundImageFix" result="effect1_dropShadow"/>
<feBlend mode="normal" in="SourceGraphic" in2="effect1_dropShadow" result="shape"/>
</filter>
<filter id="filter1_d" x="-13.5877" y="-15" width="42.5343" height="42.8571" filterUnits="userSpaceOnUse" color-interpolation-filters="sRGB">
<feFlood flood-opacity="0" result="BackgroundImageFix"/>
<feColorMatrix in="SourceAlpha" type="matrix" values="0 0 0 0 0 0 0 0 0 0 0 0 0 0 0 0 0 0 127 0"/>
<feOffset/>
<feGaussianBlur stdDeviation="7.5"/>
<feColorMatrix type="matrix" values="0 0 0 0 0.184314 0 0 0 0 0.560784 0 0 0 0 0.964706 0 0 0 1 0"/>
<feBlend mode="normal" in2="BackgroundImageFix" result="effect1_dropShadow"/>
<feBlend mode="normal" in="SourceGraphic" in2="effect1_dropShadow" result="shape"/>
</filter>
<clipPath id="clip0">
<rect width="131.61" height="135" fill="white" transform="translate(0.367798)"/>
</clipPath>
</defs>
</svg>
