<svg width="59" height="59" viewBox="0 0 59 59" fill="none" xmlns="http://www.w3.org/2000/svg">
<path d="M29.5 0C18.0452 0 8.72627 9.46535 8.72627 21.0993V37.9013C8.72627 49.5352 18.0452 59 29.5 59C40.9542 59 50.2738 49.5639 50.2738 37.9658V21.0993C50.2738 9.46535 40.9542 0 29.5 0ZM46.3664 37.9658C46.3664 47.4097 38.8006 55.0927 29.5 55.0927C20.2 55.0927 12.6336 47.3805 12.6336 37.9007V21.0993C12.6336 11.6195 20.2 3.90725 29.5 3.90725C38.8007 3.90725 46.3664 11.6195 46.3664 21.0993V37.9658Z" fill="white" fill-opacity="0.5"/>
<path d="M29.5 16.1501C28.4209 16.1501 27.5463 17.0248 27.5463 18.1038V24.9416C27.5463 26.0207 28.4209 26.8953 29.5 26.8953C30.579 26.8953 31.4537 26.0207 31.4537 24.9416V18.1038C31.4537 17.0248 30.579 16.1501 29.5 16.1501Z" fill="white" fill-opacity="0.5"/>
</svg>
