<svg width="27" height="33" viewBox="0 0 27 33" fill="none" xmlns="http://www.w3.org/2000/svg">
<path d="M13.2763 28.0198L20.574 20.9213C22.0172 19.5174 23 17.7288 23.3981 15.7816C23.7962 13.8344 23.5918 11.8161 22.8107 9.98193C22.0295 8.14774 20.7068 6.58005 19.0097 5.47709C17.3126 4.37412 15.3174 3.78542 13.2763 3.78542C11.2353 3.78542 9.24006 4.37412 7.54297 5.47709C5.84588 6.58005 4.52314 8.14774 3.74202 9.98193C2.96089 11.8161 2.75646 13.8344 3.15457 15.7816C3.55269 17.7288 4.53546 19.5174 5.97863 20.9213L13.2763 28.0198ZM13.2763 32.0752L3.894 22.949C2.03838 21.1441 0.774684 18.8444 0.262728 16.3408C-0.249229 13.8373 0.0135418 11.2423 1.01781 8.88396C2.02208 6.52565 3.72274 4.50998 5.90474 3.09183C8.08674 1.67368 10.6521 0.916748 13.2763 0.916748C15.9006 0.916748 18.4659 1.67368 20.6479 3.09183C22.8299 4.50998 24.5306 6.52565 25.5349 8.88396C26.5391 11.2423 26.8019 13.8373 26.2899 16.3408C25.778 18.8444 24.5143 21.1441 22.6587 22.949L13.2763 32.0752ZM13.2763 16.6909C14.0583 16.6909 14.8083 16.3888 15.3613 15.8509C15.9143 15.313 16.2249 14.5835 16.2249 13.8229C16.2249 13.0622 15.9143 12.3327 15.3613 11.7949C14.8083 11.257 14.0583 10.9548 13.2763 10.9548C12.4943 10.9548 11.7443 11.257 11.1914 11.7949C10.6384 12.3327 10.3278 13.0622 10.3278 13.8229C10.3278 14.5835 10.6384 15.313 11.1914 15.8509C11.7443 16.3888 12.4943 16.6909 13.2763 16.6909ZM13.2763 19.559C11.7123 19.559 10.2124 18.9547 9.10643 17.8789C8.00051 16.8032 7.3792 15.3442 7.3792 13.8229C7.3792 12.3016 8.00051 10.8426 9.10643 9.76684C10.2124 8.69111 11.7123 8.08678 13.2763 8.08678C14.8404 8.08678 16.3403 8.69111 17.4462 9.76684C18.5522 10.8426 19.1735 12.3016 19.1735 13.8229C19.1735 15.3442 18.5522 16.8032 17.4462 17.8789C16.3403 18.9547 14.8404 19.559 13.2763 19.559Z" fill="url(#paint0_linear)"/>
<defs>
<linearGradient id="paint0_linear" x1="13.2763" y1="0.916748" x2="13.2763" y2="32.0752" gradientUnits="userSpaceOnUse">
<stop stop-color="#2F6EF6"/>
<stop offset="1" stop-color="#2F8FF6"/>
</linearGradient>
</defs>
</svg>
